<?xml version="1.0" encoding="utf-8"?>
<!-- Generator: Adobe Illustrator 25.2.0, SVG Export Plug-In . SVG Version: 6.00 Build 0)  -->
<svg version="1.1" id="Layer_1" xmlns="http://www.w3.org/2000/svg" xmlns:xlink="http://www.w3.org/1999/xlink" x="0px" y="0px"
	 viewBox="0 0 24 24" style="enable-background:new 0 0 24 24;" xml:space="preserve">

<g>
	<path class="st0" d="M22,22.8H2c-0.4,0-0.8-0.3-0.8-0.8s0.3-0.8,0.8-0.8h20c0.4,0,0.8,0.3,0.8,0.8S22.4,22.8,22,22.8z"/>
</g>
<g>
	<path class="st0" d="M14.2,22.8H9.8C9.3,22.8,9,22.4,9,22V4c0-1.7,1-2.8,2.5-2.8h0.9C14,1.2,15,2.3,15,4v18
		C15,22.4,14.7,22.8,14.2,22.8z M10.5,21.2h3V4c0-1.2-0.5-1.2-1-1.2h-0.9c-0.5,0-1,0.1-1,1.2V21.2z"/>
</g>
<g>
	<path class="st0" d="M7,22.8H3c-0.4,0-0.8-0.3-0.8-0.8V10c0-1.7,0.9-2.8,2.4-2.8h0.8c1.5,0,2.4,1,2.4,2.8c0,0.4-0.3,0.8-0.8,0.8
		S6.2,10.4,6.2,10c0-1.2-0.6-1.2-0.9-1.2H4.6c-0.3,0-0.9,0-0.9,1.2v11.2h2.5V14c0-0.4,0.3-0.8,0.8-0.8s0.8,0.3,0.8,0.8v8
		C7.8,22.4,7.4,22.8,7,22.8z"/>
</g>
<g>
	<path class="st0" d="M21,22.8h-4c-0.4,0-0.8-0.3-0.8-0.8v-7c0-1.7,0.9-2.8,2.3-2.8h0.8c1.5,0,2.3,1,2.3,2.8v7
		C21.8,22.4,21.4,22.8,21,22.8z M17.8,21.2h2.5V15c0-1.2-0.6-1.2-0.8-1.2h-0.8c-0.3,0-0.8,0-0.8,1.2V21.2z"/>
</g>
</svg>
