<?xml version="1.0" encoding="utf-8"?>
<!-- Generator: Adobe Illustrator 25.2.0, SVG Export Plug-In . SVG Version: 6.00 Build 0)  -->
<svg version="1.1" id="Layer_1" xmlns="http://www.w3.org/2000/svg" xmlns:xlink="http://www.w3.org/1999/xlink" x="0px" y="0px"
	 viewBox="0 0 24 24" style="enable-background:new 0 0 24 24;" xml:space="preserve">
<path class="st0" d="M22,9.2H2c-0.4,0-0.8-0.3-0.8-0.8S1.6,7.8,2,7.8h20c0.4,0,0.8,0.3,0.8,0.8S22.4,9.2,22,9.2z"/>
<path class="st0" d="M8,17.2H6c-0.4,0-0.8-0.3-0.8-0.8s0.3-0.8,0.8-0.8h2c0.4,0,0.8,0.3,0.8,0.8S8.4,17.2,8,17.2z"/>
<path class="st0" d="M14.5,17.2h-4c-0.4,0-0.8-0.3-0.8-0.8s0.3-0.8,0.8-0.8h4c0.4,0,0.8,0.3,0.8,0.8S14.9,17.2,14.5,17.2z"/>
<path class="st0" d="M17.6,21.2H6.4c-4,0-5.2-1.2-5.2-5.1V7.9c0-3.9,1.2-5.1,5.2-5.1h11.1c4,0,5.2,1.2,5.2,5.1v8.2
	C22.8,20,21.5,21.2,17.6,21.2z M6.4,4.2c-3.1,0-3.7,0.5-3.7,3.6v8.2c0,3.1,0.5,3.6,3.7,3.6h11.1c3.1,0,3.7-0.5,3.7-3.6V7.9
	c0-3.1-0.5-3.6-3.7-3.6H6.4z"/>
</svg>
