<?xml version="1.0" encoding="utf-8"?>
<!-- Generator: Adobe Illustrator 25.2.0, SVG Export Plug-In . SVG Version: 6.00 Build 0)  -->
<svg version="1.1" id="Layer_1" xmlns="http://www.w3.org/2000/svg" xmlns:xlink="http://www.w3.org/1999/xlink" x="0px" y="0px"
	 viewBox="0 0 24 24" style="enable-background:new 0 0 24 24;" xml:space="preserve">
<path class="st0" d="M22,7.5c0,0.7-0.5,1.2-1.2,1.2H3.2C2.5,8.7,2,8.2,2,7.5v0c0-2.3,1.8-4.1,4.1-4.1h11.7C20.1,3.4,22,5.3,22,7.5z"
	/>
<path class="st0" d="M2,11.4v5c0,2.3,1.8,4.1,4.1,4.1h11.7c2.3,0,4.1-1.9,4.1-4.1v-5c0-0.7-0.5-1.2-1.2-1.2H3.2
	C2.5,10.2,2,10.8,2,11.4z M8,17.2H6c-0.4,0-0.8-0.3-0.8-0.8s0.3-0.8,0.8-0.8h2c0.4,0,0.8,0.3,0.8,0.8S8.4,17.2,8,17.2z M14.5,17.2
	h-4c-0.4,0-0.8-0.3-0.8-0.8s0.3-0.8,0.8-0.8h4c0.4,0,0.8,0.3,0.8,0.8S14.9,17.2,14.5,17.2z"/>
</svg>
