<?xml version="1.0" encoding="utf-8"?>
<!-- Generator: Adobe Illustrator 25.2.0, SVG Export Plug-In . SVG Version: 6.00 Build 0)  -->
<svg version="1.1" id="Layer_1" xmlns="http://www.w3.org/2000/svg" xmlns:xlink="http://www.w3.org/1999/xlink" x="0px" y="0px"
	 viewBox="0 0 24 24" style="enable-background:new 0 0 24 24;" xml:space="preserve">
<path class="st0" d="M20.2,7.8l-7.7,4.5c-0.3,0.2-0.7,0.2-1,0L3.8,7.8C3.2,7.5,3.1,6.8,3.5,6.3c0.3-0.3,0.6-0.6,1-0.8l5.4-3
	c1.2-0.6,3-0.6,4.2,0l5.4,3c0.4,0.2,0.7,0.5,1,0.8C20.9,6.8,20.8,7.5,20.2,7.8z"/>
<path class="st0" d="M11.4,14.1V21c0,0.8-0.8,1.3-1.5,0.9c-2.1-1-5.5-2.9-5.5-2.9c-1.2-0.7-2.2-2.4-2.2-3.9V10
	c0-0.8,0.8-1.3,1.5-0.9l7.2,4.2C11.2,13.4,11.4,13.8,11.4,14.1z"/>
<path class="st0" d="M12.6,14.1V21c0,0.8,0.8,1.3,1.4,0.9c2.1-1,5.5-2.9,5.5-2.9c1.2-0.7,2.2-2.4,2.2-3.9V10c0-0.8-0.8-1.3-1.5-0.9
	l-7.2,4.2C12.8,13.4,12.6,13.8,12.6,14.1z"/>
</svg>
