<?xml version="1.0" encoding="utf-8"?>
<!-- Generator: Adobe Illustrator 25.2.0, SVG Export Plug-In . SVG Version: 6.00 Build 0)  -->
<svg version="1.1" id="Layer_1" xmlns="http://www.w3.org/2000/svg" xmlns:xlink="http://www.w3.org/1999/xlink" x="0px" y="0px"
	 viewBox="0 0 24 24" style="enable-background:new 0 0 24 24;" xml:space="preserve">
<g>
	<path class="st0" d="M12,13.3c-0.1,0-0.3,0-0.4-0.1L2.8,8.1c-0.4-0.2-0.5-0.7-0.3-1s0.7-0.5,1-0.3l8.5,4.9l8.4-4.9
		c0.4-0.2,0.8-0.1,1,0.3c0.2,0.4,0.1,0.8-0.3,1l-8.8,5.1C12.3,13.3,12.1,13.3,12,13.3z"/>
</g>
<g>
	<path class="st0" d="M12,22.4c-0.4,0-0.8-0.3-0.8-0.8v-9.1c0-0.4,0.3-0.8,0.8-0.8s0.8,0.3,0.8,0.8v9.1C12.8,22,12.4,22.4,12,22.4z"
		/>
</g>
<g>
	<path class="st0" d="M12,22.7c-0.9,0-1.8-0.2-2.4-0.6l-5.3-3c-1.4-0.8-2.6-2.7-2.6-4.4V14c0-0.4,0.3-0.8,0.8-0.8s0.8,0.3,0.8,0.8
		v0.8c0,1.1,0.8,2.5,1.8,3.1l5.3,3c0.9,0.5,2.5,0.5,3.4,0l5.3-3c1-0.5,1.8-2,1.8-3.1V9.2c0-1.1-0.8-2.5-1.8-3.1l-5.3-3
		c-0.9-0.5-2.5-0.5-3.4,0L5,6.1c-1,0.5-1.8,2-1.8,3.1c0,0.4-0.3,0.8-0.8,0.8S1.6,9.6,1.6,9.2c0-1.7,1.1-3.6,2.6-4.4l5.3-3
		c1.4-0.8,3.5-0.8,4.9,0l5.3,3c1.4,0.8,2.6,2.7,2.6,4.4v5.7c0,1.7-1.1,3.6-2.6,4.4l-5.3,3C13.8,22.6,12.9,22.7,12,22.7z"/>
</g>
<g>
	<path class="st0" d="M17,14c-0.4,0-0.8-0.3-0.8-0.8V10L7.1,4.7c-0.4-0.2-0.5-0.7-0.3-1c0.2-0.4,0.7-0.5,1-0.3l9.5,5.5
		c0.2,0.1,0.4,0.4,0.4,0.6v3.7C17.8,13.7,17.4,14,17,14z"/>
</g>
</svg>
