<?xml version="1.0" encoding="utf-8"?>
<!-- Generator: Adobe Illustrator 25.2.0, SVG Export Plug-In . SVG Version: 6.00 Build 0)  -->
<svg version="1.1" id="Layer_1" xmlns="http://www.w3.org/2000/svg" xmlns:xlink="http://www.w3.org/1999/xlink" x="0px" y="0px"
	 viewBox="0 0 24 24" style="enable-background:new 0 0 24 24;" xml:space="preserve">
<g>
	<path d="M16.8,16.8c-0.3,0.3-0.8,0.4-1.1,0L7.2,8.3C6.9,8,6.8,7.5,7.2,7.2c0.4-0.4,0.8-0.4,1.1,0l8.5,8.5
		C17.1,16,17.1,16.5,16.8,16.8z"/>
</g>
<g>
	<path d="M16.8,8.3l-1.4,1.4c-0.3,0.3-0.8,0.4-1.1,0c-0.4-0.4-0.4-0.8,0-1.1l1.4-1.4c0.3-0.3,0.8-0.4,1.1,0
		C17.2,7.5,17.1,8,16.8,8.3z"/>
</g>
<g>
	<path d="M12.4,12.8l-4,4c-0.3,0.3-0.8,0.4-1.1,0c-0.4-0.4-0.4-0.8,0-1.1l4-4c0.3-0.3,0.8-0.4,1.1,0C12.7,12,12.6,12.5,12.4,12.8z"
		/>
</g>
<g>
	<path d="M16.8,16.8c-0.3,0.3-0.8,0.4-1.1,0L7.2,8.3C6.9,8,6.8,7.5,7.2,7.2c0.4-0.4,0.8-0.4,1.1,0l8.5,8.5
		C17.1,16,17.1,16.5,16.8,16.8z"/>
</g>
</svg>
